<svg xmlns="http://www.w3.org/2000/svg" viewBox="0 0 64 64" fill="none" stroke="currentColor" stroke-width="1.2" stroke-linecap="round" stroke-linejoin="round">
  <!-- Sugar skull ornament -->
  <path d="M32 6c-9 0-16 6.5-16 15 0 6 3 10 5 12v8l3-3 3 3 2-3 3 3 3-3 3 3v-8c2-2 5-6 5-12 0-8.5-7-15-16-15z"/>
  <circle cx="26" cy="25" r="3.2" fill="currentColor" fill-opacity="0.18"/>
  <circle cx="38" cy="25" r="3.2" fill="currentColor" fill-opacity="0.18"/>
  <circle cx="26" cy="25" r="1.2" fill="currentColor"/>
  <circle cx="38" cy="25" r="1.2" fill="currentColor"/>
  <path d="M30 32l2 3 2-3"/>
  <path d="M26 40h12M28 43h8M30 46h4"/>
  <!-- Petals on top -->
  <path d="M32 6c-2-3-5-4-5-4s1 3 3 4" fill="currentColor" fill-opacity="0.28"/>
  <path d="M32 6c2-3 5-4 5-4s-1 3-3 4" fill="currentColor" fill-opacity="0.28"/>
  <circle cx="32" cy="4" r="1.5" fill="currentColor" fill-opacity="0.35"/>
</svg>
