<svg xmlns="http://www.w3.org/2000/svg" viewBox="0 0 400 60" fill="currentColor">
  <defs>
    <pattern id="flag" x="0" y="0" width="80" height="60" patternUnits="userSpaceOnUse">
      <path d="M0 0h80v4H0z" fill-opacity="0.5"/>
      <path d="M8 4h64v40c0 4-2 6-6 6H14c-4 0-6-2-6-6z" fill-opacity="0.22"/>
      <!-- Cutouts -->
      <circle cx="22" cy="18" r="3" fill="#0B0D14"/>
      <circle cx="40" cy="16" r="4" fill="#0B0D14"/>
      <circle cx="58" cy="18" r="3" fill="#0B0D14"/>
      <path d="M30 30l4-4 4 4 4-4 4 4-4 4-4-4-4 4z" fill="#0B0D14"/>
      <path d="M20 38h40v2H20z" fill="#0B0D14"/>
      <path d="M26 42l3 3 3-3M38 42l3 3 3-3M50 42l3 3 3-3" fill="none" stroke="currentColor" stroke-width="0.6" stroke-opacity="0.4"/>
    </pattern>
  </defs>
  <rect width="400" height="60" fill="url(#flag)"/>
</svg>
