<svg xmlns="http://www.w3.org/2000/svg" viewBox="0 0 1600 900" preserveAspectRatio="xMidYMid slice">
  <defs>
    <linearGradient id="pg-l" x1="0" y1="0" x2="1" y2="1">
      <stop offset="0%" stop-color="#0E2A33"/>
      <stop offset="55%" stop-color="#141826"/>
      <stop offset="100%" stop-color="#0B0D14"/>
    </linearGradient>
    <radialGradient id="pg-l-glow" cx="50%" cy="80%" r="60%">
      <stop offset="0%" stop-color="#E86A1C" stop-opacity="0.2"/>
      <stop offset="100%" stop-color="#E86A1C" stop-opacity="0"/>
    </radialGradient>
  </defs>
  <rect width="1600" height="900" fill="url(#pg-l)"/>
  <rect width="1600" height="900" fill="url(#pg-l-glow)"/>
  <!-- Candle dots -->
  <g fill="#E6C878" fill-opacity="0.6">
    <circle cx="220" cy="620" r="2.5"/>
    <circle cx="340" cy="680" r="3"/>
    <circle cx="460" cy="650" r="2.5"/>
    <circle cx="560" cy="700" r="3"/>
    <circle cx="700" cy="660" r="2.5"/>
    <circle cx="820" cy="690" r="3"/>
    <circle cx="960" cy="640" r="2.5"/>
    <circle cx="1080" cy="680" r="3"/>
    <circle cx="1220" cy="650" r="2.5"/>
    <circle cx="1380" cy="690" r="3"/>
  </g>
  <g fill="#E86A1C" fill-opacity="0.35">
    <circle cx="220" cy="618" r="6"/>
    <circle cx="340" cy="678" r="8"/>
    <circle cx="560" cy="698" r="8"/>
    <circle cx="820" cy="688" r="8"/>
    <circle cx="1080" cy="678" r="8"/>
    <circle cx="1380" cy="688" r="8"/>
  </g>
  <!-- Papel picado silhouettes -->
  <g fill="#C9A961" fill-opacity="0.12">
    <path d="M0 80h1600v4H0z"/>
    <path d="M40 84h120v40c0 4-2 6-6 6H46c-4 0-6-2-6-6z"/>
    <path d="M200 84h120v40c0 4-2 6-6 6H206c-4 0-6-2-6-6z"/>
    <path d="M360 84h120v40c0 4-2 6-6 6H366c-4 0-6-2-6-6z"/>
    <path d="M520 84h120v40c0 4-2 6-6 6H526c-4 0-6-2-6-6z"/>
    <path d="M680 84h120v40c0 4-2 6-6 6H686c-4 0-6-2-6-6z"/>
    <path d="M840 84h120v40c0 4-2 6-6 6H846c-4 0-6-2-6-6z"/>
    <path d="M1000 84h120v40c0 4-2 6-6 6h-108c-4 0-6-2-6-6z"/>
    <path d="M1160 84h120v40c0 4-2 6-6 6h-108c-4 0-6-2-6-6z"/>
    <path d="M1320 84h120v40c0 4-2 6-6 6h-108c-4 0-6-2-6-6z"/>
    <path d="M1480 84h120v40c0 4-2 6-6 6h-108c-4 0-6-2-6-6z"/>
  </g>
  <text x="800" y="470" text-anchor="middle" font-family="Cormorant Garamond, Playfair Display, serif" font-style="italic" font-size="56" fill="#C9A961" fill-opacity="0.4">Mala Muerte</text>
  <text x="800" y="510" text-anchor="middle" font-family="Inter, sans-serif" font-size="14" letter-spacing="0.32em" fill="#C9A961" fill-opacity="0.3">INTERIOR · 1600×900</text>
</svg>
