<svg xmlns="http://www.w3.org/2000/svg" viewBox="0 0 400 600" preserveAspectRatio="xMidYMid slice">
  <defs>
    <linearGradient id="pg-p" x1="0" y1="0" x2="1" y2="1">
      <stop offset="0%" stop-color="#141826"/>
      <stop offset="55%" stop-color="#084A51"/>
      <stop offset="100%" stop-color="#0B0D14"/>
    </linearGradient>
    <radialGradient id="pg-glow" cx="50%" cy="35%" r="50%">
      <stop offset="0%" stop-color="#E86A1C" stop-opacity="0.18"/>
      <stop offset="100%" stop-color="#E86A1C" stop-opacity="0"/>
    </radialGradient>
  </defs>
  <rect width="400" height="600" fill="url(#pg-p)"/>
  <rect width="400" height="600" fill="url(#pg-glow)"/>
  <!-- Calavera silhouette -->
  <g transform="translate(200 270)" fill="#C9A961" fill-opacity="0.22" stroke="#C9A961" stroke-opacity="0.35" stroke-width="1">
    <path d="M0-90c-40 0-72 30-72 70 0 27 13 44 22 54v36l14-14 14 14 8-14 14 14 14-14 14 14v-36c9-10 22-27 22-54 0-40-32-70-72-70z"/>
    <circle cx="-26" cy="-10" r="14" fill="#0B0D14" fill-opacity="0.85"/>
    <circle cx="26" cy="-10" r="14" fill="#0B0D14" fill-opacity="0.85"/>
    <path d="M-4 20l4 6 4-6" stroke-linecap="round" fill="none"/>
    <path d="M-30 52h60M-24 60h48M-18 68h36" stroke-linecap="round" fill="none"/>
  </g>
  <text x="200" y="540" text-anchor="middle" font-family="Cormorant Garamond, Playfair Display, serif" font-style="italic" font-size="22" fill="#C9A961" fill-opacity="0.45">Mala Muerte</text>
  <text x="200" y="564" text-anchor="middle" font-family="Inter, sans-serif" font-size="10" letter-spacing="0.24em" fill="#C9A961" fill-opacity="0.35">PORTRAIT · 400×600</text>
</svg>
